# This file uses centimeters as units for non-parametric coordinates.

mtllib ceiling.mtl
g default
v 2.967164 1.955224 1.782090
v -2.967164 1.955224 1.782090
v -2.967164 1.955224 -1.782089
v 2.967164 1.955224 -1.782089
v -2.967164 2.044776 -1.782089
v -2.967164 2.044776 1.782090
v 2.967164 2.044776 1.782090
v 2.967164 2.044776 -1.782089
vn 0.000000 -1.000000 0.000000
vn 0.000000 -1.000000 0.000000
vn 0.000000 -1.000000 0.000000
vn 0.000000 -1.000000 0.000000
vn 0.000000 -1.000000 0.000000
vn 0.000000 -1.000000 0.000000
vn 0.000000 1.000000 0.000000
vn 0.000000 1.000000 0.000000
vn 0.000000 1.000000 0.000000
vn 0.000000 1.000000 0.000000
vn 0.000000 1.000000 0.000000
vn 0.000000 1.000000 0.000000
vn 1.000000 0.000000 0.000000
vn 1.000000 0.000000 0.000000
vn 1.000000 0.000000 0.000000
vn 1.000000 0.000000 0.000000
vn 1.000000 0.000000 0.000000
vn 1.000000 0.000000 0.000000
vn 0.000000 0.000000 1.000000
vn 0.000000 0.000000 1.000000
vn 0.000000 0.000000 1.000000
vn 0.000000 0.000000 1.000000
vn 0.000000 0.000000 1.000000
vn 0.000000 0.000000 1.000000
vn -1.000000 0.000000 0.000000
vn -1.000000 0.000000 0.000000
vn -1.000000 0.000000 0.000000
vn -1.000000 0.000000 0.000000
vn -1.000000 0.000000 0.000000
vn -1.000000 0.000000 0.000000
vn 0.000000 0.000000 -1.000000
vn 0.000000 0.000000 -1.000000
vn 0.000000 0.000000 -1.000000
vn 0.000000 0.000000 -1.000000
vn 0.000000 0.000000 -1.000000
vn 0.000000 0.000000 -1.000000
s off
g ceiling
usemtl initialShadingGroup
f 1//1 2//2 3//3
f 3//4 4//5 1//6
f 5//7 6//8 7//9
f 7//10 8//11 5//12
f 4//13 8//14 7//15
f 7//16 1//17 4//18
f 1//19 7//20 6//21
f 6//22 2//23 1//24
f 2//25 6//26 5//27
f 5//28 3//29 2//30
f 3//31 5//32 8//33
f 8//34 4//35 3//36
