# This file uses centimeters as units for non-parametric coordinates.

mtllib doors.mtl
g default
v -2.870746 1.302687 0.923582
v -2.870746 1.302687 1.591045
v -2.870746 0.089552 1.591045
v -2.870746 0.089552 0.923582
v -2.825373 1.302687 1.591045
v -2.825373 1.302687 0.923582
v -2.825373 0.089552 0.923582
v -2.825373 0.089552 0.878209
v -2.825373 1.348060 0.878209
v -2.825373 1.348060 1.636418
v -2.825373 0.089552 1.636418
v -2.825373 0.089552 1.591045
v -2.840299 0.089552 1.636418
v -2.840299 1.348060 1.636418
v -2.840299 1.348060 0.878209
v -2.840299 0.089552 0.878209
v -2.840299 1.302687 1.591045
v -2.840299 1.302687 0.923582
v -2.840299 0.089552 1.591045
v -2.840299 0.089552 0.923582
v -2.303819 0.089552 0.712442
v -1.818565 0.089552 0.712442
v -1.818565 0.089552 0.738979
v -2.303819 0.089552 0.738979
v -2.303819 1.302687 0.712442
v -1.818565 1.302687 0.712442
v -1.818565 1.302687 0.738979
v -2.303819 1.302687 0.738979
v 0.628358 0.089552 -0.103582
v 1.113612 0.089552 -0.103582
v 1.113612 0.089552 -0.077045
v 0.628358 0.089552 -0.077045
v 0.628358 1.302687 -0.103582
v 1.113612 1.302687 -0.103582
v 1.113612 1.302687 -0.077045
v 0.628358 1.302687 -0.077045
v 1.274029 0.089552 -0.754866
v 1.300567 0.089552 -0.754866
v 1.300567 0.089552 -0.208955
v 1.274029 0.089552 -0.208955
v 1.274029 1.302687 -0.754866
v 1.300567 1.302687 -0.754866
v 1.300567 1.302687 -0.208955
v 1.274029 1.302687 -0.208955
vn 0.000000 1.000000 0.000000
vn 0.000000 1.000000 0.000000
vn 0.000000 1.000000 0.000000
vn 0.000000 1.000000 0.000000
vn 0.000000 1.000000 0.000000
vn 0.000000 1.000000 0.000000
vn 0.000000 -1.000000 -0.000000
vn 0.000000 -1.000000 -0.000000
vn 0.000000 -1.000000 -0.000000
vn 0.000000 -1.000000 -0.000000
vn 0.000000 -1.000000 -0.000000
vn 0.000000 -1.000000 -0.000000
vn 1.000000 0.000000 0.000000
vn 1.000000 0.000000 0.000000
vn 1.000000 0.000000 0.000000
vn 1.000000 0.000000 0.000000
vn 1.000000 0.000000 0.000000
vn 1.000000 0.000000 0.000000
vn 0.000000 0.000000 1.000000
vn 0.000000 0.000000 1.000000
vn 0.000000 0.000000 1.000000
vn 0.000000 0.000000 1.000000
vn 0.000000 0.000000 1.000000
vn 0.000000 0.000000 1.000000
vn -1.000000 0.000000 0.000000
vn -1.000000 0.000000 0.000000
vn -1.000000 0.000000 0.000000
vn -1.000000 0.000000 0.000000
vn -1.000000 0.000000 0.000000
vn -1.000000 0.000000 0.000000
vn 0.000000 0.000000 -1.000000
vn 0.000000 0.000000 -1.000000
vn 0.000000 0.000000 -1.000000
vn 0.000000 0.000000 -1.000000
vn 0.000000 0.000000 -1.000000
vn 0.000000 0.000000 -1.000000
vn 1.000000 0.000000 0.000000
vn 1.000000 0.000000 0.000000
vn 1.000000 0.000000 0.000000
vn 1.000000 0.000000 0.000000
vn 1.000000 0.000000 0.000000
vn 1.000000 0.000000 0.000000
vn 1.000000 0.000000 0.000000
vn 1.000000 0.000000 0.000000
vn 1.000000 0.000000 0.000000
vn 1.000000 0.000000 0.000000
vn 1.000000 0.000000 0.000000
vn 1.000000 0.000000 0.000000
vn 1.000000 0.000000 0.000000
vn 1.000000 0.000000 0.000000
vn 1.000000 0.000000 0.000000
vn 1.000000 0.000000 0.000000
vn 1.000000 0.000000 0.000000
vn 1.000000 0.000000 0.000000
vn -1.000000 0.000000 0.000000
vn -1.000000 0.000000 0.000000
vn -1.000000 0.000000 0.000000
vn -1.000000 0.000000 0.000000
vn -1.000000 0.000000 0.000000
vn -1.000000 0.000000 0.000000
vn -1.000000 0.000000 0.000000
vn -1.000000 0.000000 0.000000
vn -1.000000 0.000000 0.000000
vn -1.000000 0.000000 0.000000
vn -1.000000 0.000000 0.000000
vn -1.000000 0.000000 0.000000
vn -1.000000 0.000000 0.000000
vn -1.000000 0.000000 0.000000
vn -1.000000 0.000000 0.000000
vn -1.000000 0.000000 0.000000
vn -1.000000 0.000000 0.000000
vn -1.000000 0.000000 0.000000
vn 0.000000 0.000000 -1.000000
vn 0.000000 0.000000 -1.000000
vn 0.000000 0.000000 -1.000000
vn 0.000000 0.000000 -1.000000
vn 0.000000 0.000000 -1.000000
vn 0.000000 0.000000 -1.000000
vn 0.000000 -1.000000 -0.000000
vn 0.000000 -1.000000 -0.000000
vn 0.000000 -1.000000 -0.000000
vn 0.000000 -1.000000 -0.000000
vn 0.000000 -1.000000 -0.000000
vn 0.000000 -1.000000 -0.000000
vn 0.000000 0.000000 1.000000
vn 0.000000 0.000000 1.000000
vn 0.000000 0.000000 1.000000
vn 0.000000 0.000000 1.000000
vn 0.000000 0.000000 1.000000
vn 0.000000 0.000000 1.000000
vn 0.000000 1.000000 0.000000
vn 0.000000 1.000000 0.000000
vn 0.000000 1.000000 0.000000
vn 0.000000 1.000000 0.000000
vn 0.000000 1.000000 0.000000
vn 0.000000 1.000000 0.000000
vn 0.000000 0.000000 -1.000000
vn 0.000000 0.000000 -1.000000
vn 0.000000 0.000000 -1.000000
vn 0.000000 0.000000 -1.000000
vn 0.000000 0.000000 -1.000000
vn 0.000000 0.000000 -1.000000
vn 0.000000 -1.000000 -0.000000
vn 0.000000 -1.000000 -0.000000
vn 0.000000 -1.000000 -0.000000
vn 0.000000 -1.000000 -0.000000
vn 0.000000 -1.000000 -0.000000
vn 0.000000 -1.000000 -0.000000
vn 0.000000 0.000000 1.000000
vn 0.000000 0.000000 1.000000
vn 0.000000 0.000000 1.000000
vn 0.000000 0.000000 1.000000
vn 0.000000 0.000000 1.000000
vn 0.000000 0.000000 1.000000
vn 0.000000 -1.000000 0.000000
vn 0.000000 -1.000000 0.000000
vn 0.000000 -1.000000 0.000000
vn 0.000000 -1.000000 0.000000
vn 0.000000 -1.000000 0.000000
vn 0.000000 -1.000000 0.000000
vn 0.000000 0.000000 -1.000000
vn 0.000000 0.000000 -1.000000
vn 0.000000 0.000000 -1.000000
vn 0.000000 0.000000 -1.000000
vn 1.000000 0.000000 0.000000
vn 1.000000 0.000000 0.000000
vn 1.000000 0.000000 0.000000
vn 1.000000 0.000000 0.000000
vn 0.000000 0.000000 1.000000
vn 0.000000 0.000000 1.000000
vn 0.000000 0.000000 1.000000
vn 0.000000 0.000000 1.000000
vn -1.000000 0.000000 0.000000
vn -1.000000 0.000000 0.000000
vn -1.000000 0.000000 0.000000
vn -1.000000 0.000000 0.000000
vn 0.000000 -1.000000 0.000000
vn 0.000000 -1.000000 0.000000
vn 0.000000 -1.000000 0.000000
vn 0.000000 -1.000000 0.000000
vn 0.000000 1.000000 0.000000
vn 0.000000 1.000000 0.000000
vn 0.000000 1.000000 0.000000
vn 0.000000 1.000000 0.000000
vn 0.000000 0.000000 -1.000000
vn 0.000000 0.000000 -1.000000
vn 0.000000 0.000000 -1.000000
vn 0.000000 0.000000 -1.000000
vn 1.000000 0.000000 0.000000
vn 1.000000 0.000000 0.000000
vn 1.000000 0.000000 0.000000
vn 1.000000 0.000000 0.000000
vn 0.000000 0.000000 1.000000
vn 0.000000 0.000000 1.000000
vn 0.000000 0.000000 1.000000
vn 0.000000 0.000000 1.000000
vn -1.000000 0.000000 0.000000
vn -1.000000 0.000000 0.000000
vn -1.000000 0.000000 0.000000
vn -1.000000 0.000000 0.000000
vn 0.000000 -1.000000 0.000000
vn 0.000000 -1.000000 0.000000
vn 0.000000 -1.000000 0.000000
vn 0.000000 -1.000000 0.000000
vn 0.000000 1.000000 0.000000
vn 0.000000 1.000000 0.000000
vn 0.000000 1.000000 0.000000
vn 0.000000 1.000000 0.000000
vn 0.000000 0.000000 -1.000000
vn 0.000000 0.000000 -1.000000
vn 0.000000 0.000000 -1.000000
vn 0.000000 0.000000 -1.000000
vn 1.000000 0.000000 0.000000
vn 1.000000 0.000000 0.000000
vn 1.000000 0.000000 0.000000
vn 1.000000 0.000000 0.000000
vn 0.000000 0.000000 1.000000
vn 0.000000 0.000000 1.000000
vn 0.000000 0.000000 1.000000
vn 0.000000 0.000000 1.000000
vn -1.000000 0.000000 0.000000
vn -1.000000 0.000000 0.000000
vn -1.000000 0.000000 0.000000
vn -1.000000 0.000000 0.000000
vn 0.000000 -1.000000 0.000000
vn 0.000000 -1.000000 0.000000
vn 0.000000 -1.000000 0.000000
vn 0.000000 -1.000000 0.000000
vn 0.000000 1.000000 0.000000
vn 0.000000 1.000000 0.000000
vn 0.000000 1.000000 0.000000
vn 0.000000 1.000000 0.000000
s off
g doors
usemtl blinn4SG
f 1//1 2//2 17//3
f 17//4 18//5 1//6
f 19//7 3//8 4//9
f 4//10 20//11 19//12
f 19//13 20//14 18//15
f 18//16 17//17 19//18
f 3//19 19//20 17//21
f 17//22 2//23 3//24
f 4//25 3//26 2//27
f 2//28 1//29 4//30
f 20//31 4//32 1//33
f 1//34 18//35 20//36
f 5//37 6//38 9//39
f 8//40 9//41 6//42
f 11//43 5//44 10//45
f 9//46 10//47 5//48
f 6//49 7//50 8//51
f 5//52 11//53 12//54
f 18//55 16//56 20//57
f 17//58 19//59 13//60
f 17//61 15//62 18//63
f 16//64 18//65 15//66
f 13//67 14//68 17//69
f 15//70 17//71 14//72
f 19//73 17//74 5//75
f 5//76 12//77 19//78
f 13//79 19//80 12//81
f 12//82 11//83 13//84
f 14//85 13//86 11//87
f 11//88 10//89 14//90
f 15//91 14//92 10//93
f 10//94 9//95 15//96
f 16//97 15//98 9//99
f 9//100 8//101 16//102
f 20//103 16//104 8//105
f 8//106 7//107 20//108
f 18//109 20//110 7//111
f 7//112 6//113 18//114
f 17//115 18//116 6//117
f 6//118 5//119 17//120
f 22//121 21//122 25//123 26//124
f 23//125 22//126 26//127 27//128
f 24//129 23//130 27//131 28//132
f 21//133 24//134 28//135 25//136
f 23//137 24//138 21//139 22//140
f 26//141 25//142 28//143 27//144
f 30//145 29//146 33//147 34//148
f 31//149 30//150 34//151 35//152
f 32//153 31//154 35//155 36//156
f 29//157 32//158 36//159 33//160
f 31//161 32//162 29//163 30//164
f 34//165 33//166 36//167 35//168
f 38//169 37//170 41//171 42//172
f 39//173 38//174 42//175 43//176
f 40//177 39//178 43//179 44//180
f 37//181 40//182 44//183 41//184
f 39//185 40//186 37//187 38//188
f 42//189 41//190 44//191 43//192
