<?xml version="1.0" encoding="utf-8"?>
<!-- Generator: Adobe Illustrator 23.0.1, SVG Export Plug-In . SVG Version: 6.00 Build 0)  -->
<svg version="1.1" id="Layer_1" xmlns="http://www.w3.org/2000/svg" xmlns:xlink="http://www.w3.org/1999/xlink" x="0px" y="0px"
	 viewBox="0 0 512 512" style="enable-background:new 0 0 512 512;" xml:space="preserve">
<style type="text/css">
	.st0{fill:none;}
	.st1{fill:#2A3882;}
	.st2{fill:url(#SVGID_1_);}
	.st3{fill:#5A6936;}
	.st4{fill:#B3CB48;}
	.st5{opacity:0.5;fill:url(#SVGID_2_);}
	.st6{fill:#CCCCCC;}
	.st7{opacity:0.3;}
	.st8{fill:#FFFFFF;}
	.st9{fill:#777574;}
	.st10{fill:#666666;}
	.st11{fill:#999999;}
	.st12{opacity:0.3;fill-rule:evenodd;clip-rule:evenodd;fill:url(#SVGID_3_);}
	.st13{fill:#996633;}
	.st14{fill:#6D3E18;}
	.st15{opacity:0.5;fill:#739185;}
	.st16{fill:#809F69;}
	.st17{opacity:0.2;fill:#FFCC00;}
	.st18{fill:#79893F;}
	.st19{opacity:0.3;fill-rule:evenodd;clip-rule:evenodd;fill:url(#SVGID_4_);}
	.st20{fill:#D8D5CA;}
	.st21{fill:#BFBAB4;}
	.st22{fill:#E6E1DB;}
	.st23{fill:#969390;}
	.st24{opacity:0.5;}
	.st25{fill:#EFEFEF;}
	.st26{fill:#4C646E;}
	.st27{fill:#2E4C56;}
	.st28{opacity:0.5;fill:#686865;}
	.st29{opacity:0.4;fill:#555453;}
	.st30{fill:#5B7793;}
	.st31{opacity:0.6;fill:url(#SVGID_5_);}
	.st32{fill:#476580;}
	.st33{fill:#BEB9B3;}
	.st34{fill:#E4D6C3;}
	.st35{fill:#C1B29F;}
	.st36{fill:#AAA59F;}
	.st37{fill:#D8D4D0;}
	.st38{clip-path:url(#SVGID_7_);fill:#BEB9B3;}
	.st39{opacity:0.6;fill:url(#SVGID_8_);}
	.st40{fill:#7A888B;}
	.st41{fill:#AFD3D2;}
	.st42{opacity:0.5;fill:#2E4C56;}
	.st43{opacity:0.5;fill:#7A888B;}
	.st44{fill:url(#SVGID_9_);}
	.st45{opacity:0.6;fill:#263437;}
	.st46{fill:#263437;}
	.st47{opacity:0.6;fill:#7A888B;}
</style>
<pattern  width="418.77" height="194.05" patternUnits="userSpaceOnUse" id="New_Pattern_Swatch_3" viewBox="0 -194.05 418.77 194.05" style="overflow:visible;">
	<g>
		<rect y="-194.05" class="st0" width="418.77" height="194.05"/>
		<path class="st1" d="M418.77-194.05v0.54v0.53v10.99v0.54v0.53h-13.55v10.99h13.55v0.54v0.53v10.99v0.54v0.53h-13.55v10.99h13.55
			v0.54v0.53v10.99v0.54v0.53h-13.55v10.99h13.55v0.54v0.53v10.99v0.54v0.53h-13.55v10.98h13.55v0.01v0.53v0.53v0.01v10.98v0.54
			v0.53h-13.55v10.99h13.55v0.54v0.53v10.99v0.54v0.53h-13.55v10.99h13.55v0.54v0.53v10.99v0.54v0.53h-13.55v10.99h13.55v0.54v0.53
			v10.99v0.54v0.53h-13.55v10.99h13.55V0H209.88h-0.98H0v-1.07h12.55v-10.99H0v-0.53h0v-12.06h0v-0.54h12.55v-10.99H0v-0.53h0
			v-12.06h0v-0.54h12.55v-10.99H0v-0.53h0V-72.9h0v-0.54h12.55v-10.99H0v-0.53h0v-12.06h0v-0.53v-0.01h12.55v-10.98H0v-0.53h0
			v-12.06h0v-0.54h12.55v-10.99H0v-0.53h0v-12.06h0v-0.54h12.55v-10.99H0v-0.53h0v-12.06h0v-0.54h12.55v-10.99H0v-0.53h0v-12.06h0
			v-0.54h208.89h0.98H418.77z M366.56-181.99h25.03v-10.99h-25.03V-181.99z M209.88-25.19h11.57v-10.99h-11.57h-0.98h-12.56v10.99
			h12.56H209.88z M27.17-157.87H52.2v-10.99H27.17V-157.87z M38.65-169.93v-10.99H13.62v10.99H38.65z M196.33-156.79v10.99h12.56
			h0.98h11.57v-10.99h-11.57h-0.98H196.33z M340.46-168.86v10.99h25.03v-10.99H340.46z M378.05-169.93v-10.99h-25.03v10.99H378.05z
			 M209.88-49.32h11.57v-10.99h-11.57h-0.98h-12.56v10.99h12.56H209.88z M53.27-85.5H78.3v-10.98H53.27V-85.5z M53.27-133.74H78.3
			v-10.99H53.27V-133.74z M64.75-145.8v-10.99H39.72v10.99H64.75z M196.33-132.67v10.99h12.56h0.98h11.57v-10.99h-11.57h-0.98
			H196.33z M314.36-144.73v10.99h25.03v-10.99H314.36z M351.95-145.8v-10.99h-25.03v10.99H351.95z M209.88-73.44h11.57v-10.99
			h-11.57h-0.98h-12.56v10.99h12.56H209.88z M79.37-85.5h25.03v-10.98H79.37V-85.5z M79.37-109.62h25.03v-10.99H79.37V-109.62z
			 M90.86-121.68v-10.99H65.82v10.99H90.86z M196.33-108.55v10.98h12.56h0.98h11.57v-10.98h-11.57h-0.98H196.33z M288.26-120.61
			v10.99h25.03v-10.99H288.26z M325.85-121.68v-10.99h-25.03v10.99H325.85z M105.47-85.5h25.03v-10.98h-25.03V-85.5z M273.64-108.55
			h-25.03v10.98h25.03V-108.55z M247.54-108.55h-25.03v10.98h25.03V-108.55z M195.26-108.55h-25.03v10.98h25.03V-108.55z
			 M169.16-108.55h-25.03v10.98h25.03V-108.55z M143.06-108.55h-25.03v10.98h25.03V-108.55z M131.57-85.5h25.03v-10.98h-25.03V-85.5
			z M157.67-85.5h25.03v-10.98h-25.03V-85.5z M183.78-85.5h25.03v-10.98h-25.03V-85.5z M209.96-85.5h25.03v-10.98h-25.03V-85.5z
			 M236.06-85.5h25.03v-10.98h-25.03V-85.5z M262.16-85.5h25.03v-10.98h-25.03V-85.5z M288.26-85.5h25.03v-10.98h-25.03V-85.5z
			 M299.74-108.55h-25.03v10.98h25.03V-108.55z M299.74-132.67h-25.03v10.99h25.03V-132.67z M262.16-120.61v10.99h25.03v-10.99
			H262.16z M273.64-132.67h-25.03v10.99h25.03V-132.67z M236.06-120.61v10.99h25.03v-10.99H236.06z M247.54-132.67h-25.03v10.99
			h25.03V-132.67z M209.96-120.61v10.99h25.03v-10.99H209.96z M208.81-120.61h-25.03v10.99h25.03V-120.61z M195.26-132.67h-25.03
			v10.99h25.03V-132.67z M157.67-120.61v10.99h25.03v-10.99H157.67z M169.16-132.67h-25.03v10.99h25.03V-132.67z M131.57-120.61
			v10.99h25.03v-10.99H131.57z M143.06-132.67h-25.03v10.99h25.03V-132.67z M105.47-120.61v10.99h25.03v-10.99H105.47z
			 M116.96-132.67H91.93v10.99h25.03V-132.67z M91.93-108.55v10.98h25.03v-10.98H91.93z M65.82-84.43v10.99h25.03v-10.99H65.82z
			 M79.37-61.38h25.03v-10.99H79.37V-61.38z M116.96-73.44v-10.99H91.93v10.99H116.96z M105.47-61.38h25.03v-10.99h-25.03V-61.38z
			 M143.06-73.44v-10.99h-25.03v10.99H143.06z M131.57-61.38h25.03v-10.99h-25.03V-61.38z M169.16-73.44v-10.99h-25.03v10.99H169.16
			z M157.67-61.38h25.03v-10.99h-25.03V-61.38z M195.26-73.44v-10.99h-25.03v10.99H195.26z M183.78-61.38h25.03v-10.99h-25.03
			V-61.38z M209.96-61.38h25.03v-10.99h-25.03V-61.38z M247.54-73.44v-10.99h-25.03v10.99H247.54z M236.06-61.38h25.03v-10.99
			h-25.03V-61.38z M273.64-73.44v-10.99h-25.03v10.99H273.64z M262.16-61.38h25.03v-10.99h-25.03V-61.38z M299.74-73.44v-10.99
			h-25.03v10.99H299.74z M288.26-61.38h25.03v-10.99h-25.03V-61.38z M325.85-73.44v-10.99h-25.03v10.99H325.85z M314.36-61.38h25.03
			v-10.99h-25.03V-61.38z M351.95-73.44v-10.99h-25.03v10.99H351.95z M339.39-85.5v-10.98h-25.03v10.98H339.39z M325.85-108.55
			h-25.03v10.98h25.03V-108.55z M339.39-109.62v-10.99h-25.03v10.99H339.39z M351.95-121.68v-10.99h-25.03v10.99H351.95z
			 M325.85-156.79h-25.03v10.99h25.03V-156.79z M288.26-144.73v10.99h25.03v-10.99H288.26z M299.74-156.79h-25.03v10.99h25.03
			V-156.79z M262.16-144.73v10.99h25.03v-10.99H262.16z M273.64-156.79h-25.03v10.99h25.03V-156.79z M236.06-144.73v10.99h25.03
			v-10.99H236.06z M247.54-156.79h-25.03v10.99h25.03V-156.79z M209.96-144.73v10.99h25.03v-10.99H209.96z M208.81-144.73h-25.03
			v10.99h25.03V-144.73z M195.26-156.79h-25.03v10.99h25.03V-156.79z M157.67-144.73v10.99h25.03v-10.99H157.67z M169.16-156.79
			h-25.03v10.99h25.03V-156.79z M131.57-144.73v10.99h25.03v-10.99H131.57z M143.06-156.79h-25.03v10.99h25.03V-156.79z
			 M105.47-144.73v10.99h25.03v-10.99H105.47z M116.96-156.79H91.93v10.99h25.03V-156.79z M79.37-144.73v10.99h25.03v-10.99H79.37z
			 M90.86-156.79H65.82v10.99h25.03V-156.79z M39.72-132.67v10.99h25.03v-10.99H39.72z M53.27-109.62H78.3v-10.99H53.27V-109.62z
			 M65.82-108.55v10.98h25.03v-10.98H65.82z M39.72-84.43v10.99h25.03v-10.99H39.72z M53.27-61.38H78.3v-10.99H53.27V-61.38z
			 M39.72-60.31v10.99h25.03v-10.99H39.72z M53.27-37.26H78.3v-10.99H53.27V-37.26z M90.86-49.32v-10.99H65.82v10.99H90.86z
			 M79.37-37.26h25.03v-10.99H79.37V-37.26z M116.96-49.32v-10.99H91.93v10.99H116.96z M105.47-37.26h25.03v-10.99h-25.03V-37.26z
			 M143.06-49.32v-10.99h-25.03v10.99H143.06z M131.57-37.26h25.03v-10.99h-25.03V-37.26z M169.16-49.32v-10.99h-25.03v10.99H169.16
			z M157.67-37.26h25.03v-10.99h-25.03V-37.26z M195.26-49.32v-10.99h-25.03v10.99H195.26z M183.78-37.26h25.03v-10.99h-25.03
			V-37.26z M209.96-37.26h25.03v-10.99h-25.03V-37.26z M247.54-49.32v-10.99h-25.03v10.99H247.54z M236.06-37.26h25.03v-10.99
			h-25.03V-37.26z M273.64-49.32v-10.99h-25.03v10.99H273.64z M262.16-37.26h25.03v-10.99h-25.03V-37.26z M299.74-49.32v-10.99
			h-25.03v10.99H299.74z M288.26-37.26h25.03v-10.99h-25.03V-37.26z M325.85-49.32v-10.99h-25.03v10.99H325.85z M314.36-37.26h25.03
			v-10.99h-25.03V-37.26z M351.95-49.32v-10.99h-25.03v10.99H351.95z M340.46-37.26h25.03v-10.99h-25.03V-37.26z M378.05-49.32
			v-10.99h-25.03v10.99H378.05z M365.49-72.37h-25.03v10.99h25.03V-72.37z M378.05-73.44v-10.99h-25.03v10.99H378.05z M365.49-85.5
			v-10.98h-25.03v10.98H365.49z M351.95-108.55h-25.03v10.98h25.03V-108.55z M365.49-109.62v-10.99h-25.03v10.99H365.49z
			 M378.05-121.68v-10.99h-25.03v10.99H378.05z M365.49-144.73h-25.03v10.99h25.03V-144.73z M378.05-145.8v-10.99h-25.03v10.99
			H378.05z M351.95-180.92h-25.03v10.99h25.03V-180.92z M314.36-168.86v10.99h25.03v-10.99H314.36z M325.85-180.92h-25.03v10.99
			h25.03V-180.92z M288.26-168.86v10.99h25.03v-10.99H288.26z M299.74-180.92h-25.03v10.99h25.03V-180.92z M262.16-168.86v10.99
			h25.03v-10.99H262.16z M273.64-180.92h-25.03v10.99h25.03V-180.92z M236.06-168.86v10.99h25.03v-10.99H236.06z M247.54-180.92
			h-25.03v10.99h25.03V-180.92z M209.96-168.86v10.99h25.03v-10.99H209.96z M208.81-168.86h-25.03v10.99h25.03V-168.86z
			 M195.26-180.92h-25.03v10.99h25.03V-180.92z M157.67-168.86v10.99h25.03v-10.99H157.67z M169.16-180.92h-25.03v10.99h25.03
			V-180.92z M131.57-168.86v10.99h25.03v-10.99H131.57z M143.06-180.92h-25.03v10.99h25.03V-180.92z M105.47-168.86v10.99h25.03
			v-10.99H105.47z M116.96-180.92H91.93v10.99h25.03V-180.92z M79.37-168.86v10.99h25.03v-10.99H79.37z M90.86-180.92H65.82v10.99
			h25.03V-180.92z M53.27-168.86v10.99H78.3v-10.99H53.27z M64.75-180.92H39.72v10.99h25.03V-180.92z M13.62-156.79v10.99h25.03
			v-10.99H13.62z M27.17-133.74H52.2v-10.99H27.17V-133.74z M13.62-132.67v10.99h25.03v-10.99H13.62z M27.17-109.62H52.2v-10.99
			H27.17V-109.62z M39.72-108.55v10.98h25.03v-10.98H39.72z M27.17-85.5H52.2v-10.98H27.17V-85.5z M13.62-84.43v10.99h25.03v-10.99
			H13.62z M27.17-61.38H52.2v-10.99H27.17V-61.38z M13.62-60.31v10.99h25.03v-10.99H13.62z M27.17-37.26H52.2v-10.99H27.17V-37.26z
			 M13.62-36.19v10.99h25.03v-10.99H13.62z M27.17-13.13H52.2v-10.99H27.17V-13.13z M64.75-25.19v-10.99H39.72v10.99H64.75z
			 M53.27-13.13H78.3v-10.99H53.27V-13.13z M90.86-25.19v-10.99H65.82v10.99H90.86z M79.37-13.13h25.03v-10.99H79.37V-13.13z
			 M116.96-25.19v-10.99H91.93v10.99H116.96z M105.47-13.13h25.03v-10.99h-25.03V-13.13z M143.06-25.19v-10.99h-25.03v10.99H143.06z
			 M131.57-13.13h25.03v-10.99h-25.03V-13.13z M169.16-25.19v-10.99h-25.03v10.99H169.16z M157.67-13.13h25.03v-10.99h-25.03V-13.13
			z M195.26-25.19v-10.99h-25.03v10.99H195.26z M183.78-13.13h25.03v-10.99h-25.03V-13.13z M209.96-13.13h25.03v-10.99h-25.03
			V-13.13z M247.54-25.19v-10.99h-25.03v10.99H247.54z M236.06-13.13h25.03v-10.99h-25.03V-13.13z M273.64-25.19v-10.99h-25.03
			v10.99H273.64z M262.16-13.13h25.03v-10.99h-25.03V-13.13z M299.74-25.19v-10.99h-25.03v10.99H299.74z M288.26-13.13h25.03v-10.99
			h-25.03V-13.13z M325.85-25.19v-10.99h-25.03v10.99H325.85z M314.36-13.13h25.03v-10.99h-25.03V-13.13z M351.95-25.19v-10.99
			h-25.03v10.99H351.95z M340.46-13.13h25.03v-10.99h-25.03V-13.13z M378.05-25.19v-10.99h-25.03v10.99H378.05z M366.56-13.13h25.03
			v-10.99h-25.03V-13.13z M404.15-25.19v-10.99h-25.03v10.99H404.15z M391.59-48.25h-25.03v10.99h25.03V-48.25z M404.15-49.32
			v-10.99h-25.03v10.99H404.15z M391.59-72.37h-25.03v10.99h25.03V-72.37z M404.15-73.44v-10.99h-25.03v10.99H404.15z M391.59-85.5
			v-10.98h-25.03v10.98H391.59z M378.05-108.55h-25.03v10.98h25.03V-108.55z M391.59-109.62v-10.99h-25.03v10.99H391.59z
			 M404.15-121.68v-10.99h-25.03v10.99H404.15z M391.59-144.73h-25.03v10.99h25.03V-144.73z M404.15-145.8v-10.99h-25.03v10.99
			H404.15z M391.59-168.86h-25.03v10.99h25.03V-168.86z M404.15-169.93v-10.99h-25.03v10.99H404.15z M340.46-181.99h25.03v-10.99
			h-25.03V-181.99z M314.36-181.99h25.03v-10.99h-25.03V-181.99z M288.26-181.99h25.03v-10.99h-25.03V-181.99z M262.16-181.99h25.03
			v-10.99h-25.03V-181.99z M236.06-181.99h25.03v-10.99h-25.03V-181.99z M209.96-181.99h25.03v-10.99h-25.03V-181.99z
			 M208.89-180.92h-12.56v10.99h12.56h0.98h11.57v-10.99h-11.57H208.89z M183.78-181.99h25.03v-10.99h-25.03V-181.99z
			 M157.67-181.99h25.03v-10.99h-25.03V-181.99z M131.57-181.99h25.03v-10.99h-25.03V-181.99z M105.47-181.99h25.03v-10.99h-25.03
			V-181.99z M79.37-181.99h25.03v-10.99H79.37V-181.99z M53.27-181.99H78.3v-10.99H53.27V-181.99z M27.17-181.99H52.2v-10.99H27.17
			V-181.99z M26.1-181.99v-10.99H1.07v10.99H26.1z M26.1-157.87v-10.99H1.07v10.99H26.1z M26.1-133.74v-10.99H1.07v10.99H26.1z
			 M26.1-109.62v-10.99H1.07v10.99H26.1z M13.62-97.57h25.03v-10.98H13.62V-97.57z M26.1-85.5v-10.98H1.07v10.98H26.1z M26.1-61.38
			v-10.99H1.07v10.99H26.1z M26.1-37.26v-10.99H1.07v10.99H26.1z M26.1-13.13v-10.99H1.07v10.99H26.1z M38.65-12.06H13.62v10.99
			h25.03V-12.06z M64.75-12.06H39.72v10.99h25.03V-12.06z M90.86-12.06H65.82v10.99h25.03V-12.06z M116.96-12.06H91.93v10.99h25.03
			V-12.06z M143.06-12.06h-25.03v10.99h25.03V-12.06z M169.16-12.06h-25.03v10.99h25.03V-12.06z M195.26-12.06h-25.03v10.99h25.03
			V-12.06z M221.44-12.06h-11.57h-0.98h-12.56v10.99h12.56h0.98h11.57V-12.06z M247.54-12.06h-25.03v10.99h25.03V-12.06z
			 M273.64-12.06h-25.03v10.99h25.03V-12.06z M299.74-12.06h-25.03v10.99h25.03V-12.06z M325.85-12.06h-25.03v10.99h25.03V-12.06z
			 M351.95-12.06h-25.03v10.99h25.03V-12.06z M378.05-12.06h-25.03v10.99h25.03V-12.06z M404.15-12.06h-25.03v10.99h25.03V-12.06z
			 M392.66-24.12v10.99h25.03v-10.99H392.66z M392.66-48.25v10.99h25.03v-10.99H392.66z M392.66-72.37v10.99h25.03v-10.99H392.66z
			 M417.7-96.49h-25.03v10.98h25.03V-96.49z M404.15-97.57v-10.98h-25.03v10.98H404.15z M392.66-120.61v10.99h25.03v-10.99H392.66z
			 M392.66-144.73v10.99h25.03v-10.99H392.66z M392.66-168.86v10.99h25.03v-10.99H392.66z M417.7-192.98h-25.03v10.99h25.03V-192.98
			z"/>
	</g>
</pattern>
<g>
	
		<linearGradient id="SVGID_1_" gradientUnits="userSpaceOnUse" x1="-1623.7012" y1="334.0365" x2="-1138.209" y2="334.0365" gradientTransform="matrix(-1 0 0 1 -1125.209 0)">
		<stop  offset="0" style="stop-color:#79512C"/>
		<stop  offset="1" style="stop-color:#5A3A1E"/>
	</linearGradient>
	<ellipse class="st2" cx="255.75" cy="334.04" rx="242.75" ry="140.15"/>
</g>
<ellipse class="st3" cx="255.75" cy="311.6" rx="242.75" ry="140.15"/>
<ellipse class="st4" cx="255.75" cy="300.33" rx="242.75" ry="140.15"/>
<radialGradient id="SVGID_2_" cx="-1516.0608" cy="267.2758" r="440.5828" gradientTransform="matrix(-0.9909 0.1346 0.1035 0.7623 -1139.0873 267.6072)" gradientUnits="userSpaceOnUse">
	<stop  offset="0" style="stop-color:#6C943F;stop-opacity:0"/>
	<stop  offset="1" style="stop-color:#6C943F"/>
</radialGradient>
<ellipse class="st5" cx="255.75" cy="300.33" rx="242.75" ry="140.15"/>
<polygon class="st6" points="371.04,369.23 484.04,303.58 441.35,279.01 328.06,344.48 "/>
<g class="st7">
	<polygon class="st0" points="388.28,323.54 376.67,316.84 361.63,325.53 373.23,332.23 	"/>
	<polygon class="st0" points="438.42,294.6 426.78,287.88 411.74,296.57 423.37,303.29 	"/>
	<polygon class="st0" points="371.57,333.19 359.97,326.49 344.92,335.19 356.52,341.88 	"/>
	<polygon class="st0" points="471.1,311.55 484.04,304.03 470.64,296.32 457.68,303.8 	"/>
	<polygon class="st0" points="390.83,342.39 404.46,350.26 419.46,341.54 405.88,333.7 	"/>
	<polygon class="st0" points="440.97,313.45 454.44,321.23 469.45,312.51 456.02,304.76 	"/>
	<polygon class="st0" points="421.71,304.25 410.08,297.53 395.03,306.22 406.66,312.94 	"/>
	<polygon class="st0" points="387.51,342.4 373.23,334.15 358.18,342.84 372.46,351.09 	"/>
	<polygon class="st0" points="453.01,286.17 441.35,279.46 428.44,286.92 440.08,293.64 	"/>
	<polygon class="st0" points="405,313.9 393.37,307.18 378.33,315.88 389.95,322.59 	"/>
	<polygon class="st0" points="374.12,352.04 387.79,359.94 402.8,351.22 389.17,343.35 	"/>
	<polygon class="st0" points="456.02,302.84 468.98,295.36 454.68,287.13 441.74,294.6 	"/>
	<polygon class="st0" points="343.26,336.15 328.06,344.93 339.67,351.61 354.86,342.84 	"/>
	<polygon class="st0" points="437.65,313.45 423.37,305.2 408.32,313.9 422.6,322.14 	"/>
	<polygon class="st0" points="420.94,323.1 406.66,314.85 391.61,323.54 405.88,331.79 	"/>
	<polygon class="st0" points="372.46,353 357.3,361.75 356.74,361.43 356.74,361.43 356.64,361.37 356.2,361.12 356.2,361.12 
		355.64,360.79 370.8,352.04 356.52,343.8 341.33,352.57 371.04,369.67 386.14,360.9 	"/>
	<polygon class="st0" points="454.36,303.8 440.08,295.56 425.03,304.25 439.31,312.49 	"/>
	<polygon class="st0" points="424.26,323.1 437.78,330.9 452.78,322.19 439.31,314.41 	"/>
	<polygon class="st0" points="407.54,332.75 421.12,340.58 436.12,331.87 422.6,324.06 	"/>
	<polygon class="st0" points="404.22,332.75 389.95,324.5 374.89,333.19 389.17,341.44 	"/>
	<polygon class="st8" points="356.52,341.88 344.92,335.19 344.36,335.51 355.96,342.21 	"/>
	<polygon class="st8" points="372.46,351.09 358.18,342.84 357.62,343.17 371.9,351.41 	"/>
	<polygon class="st8" points="373.56,352.37 387.23,360.27 387.79,359.94 374.12,352.04 	"/>
	<polygon class="st9" points="355.96,342.21 344.36,335.51 343.26,336.15 354.86,342.84 	"/>
	<polygon class="st9" points="371.9,351.41 357.62,343.17 356.52,343.8 370.8,352.04 	"/>
	<polygon class="st9" points="372.46,353 386.14,360.9 387.23,360.27 373.56,352.37 	"/>
	<polygon class="st8" points="389.17,341.44 374.89,333.19 374.33,333.52 388.61,341.76 	"/>
	<polygon class="st8" points="390.27,342.72 403.89,350.59 404.46,350.26 390.83,342.39 	"/>
	<polygon class="st8" points="373.23,332.23 361.63,325.53 361.06,325.86 372.67,332.56 	"/>
	<polygon class="st9" points="372.67,332.56 361.06,325.86 359.97,326.49 371.57,333.19 	"/>
	<polygon class="st9" points="388.61,341.76 374.33,333.52 373.23,334.15 387.51,342.4 	"/>
	<polygon class="st9" points="389.17,343.35 402.8,351.22 403.89,350.59 390.27,342.72 	"/>
	<polygon class="st8" points="406.98,333.07 420.56,340.91 421.12,340.58 407.54,332.75 	"/>
	<polygon class="st8" points="389.95,322.59 378.33,315.88 377.77,316.2 389.38,322.91 	"/>
	<polygon class="st8" points="405.88,331.79 391.61,323.54 391.04,323.87 405.32,332.11 	"/>
	<polygon class="st9" points="405.32,332.11 391.04,323.87 389.95,324.5 404.22,332.75 	"/>
	<polygon class="st9" points="389.38,322.91 377.77,316.2 376.67,316.84 388.28,323.54 	"/>
	<polygon class="st9" points="405.88,333.7 419.46,341.54 420.56,340.91 406.98,333.07 	"/>
	<polygon class="st8" points="423.69,323.42 437.22,331.23 437.78,330.9 424.26,323.1 	"/>
	<polygon class="st8" points="406.66,312.94 395.03,306.22 394.47,306.55 406.1,313.26 	"/>
	<polygon class="st8" points="422.6,322.14 408.32,313.9 407.76,314.22 422.03,322.46 	"/>
	<polygon class="st9" points="406.1,313.26 394.47,306.55 393.37,307.18 405,313.9 	"/>
	<polygon class="st9" points="422.03,322.46 407.76,314.22 406.66,314.85 420.94,323.1 	"/>
	<polygon class="st9" points="422.6,324.06 436.12,331.87 437.22,331.23 423.69,323.42 	"/>
	<polygon class="st8" points="440.41,313.77 453.88,321.55 454.44,321.23 440.97,313.45 	"/>
	<polygon class="st8" points="423.37,303.29 411.74,296.57 411.17,296.9 422.81,303.61 	"/>
	<polygon class="st8" points="439.31,312.49 425.03,304.25 424.47,304.57 438.75,312.81 	"/>
	<polygon class="st9" points="438.75,312.81 424.47,304.57 423.37,305.2 437.65,313.45 	"/>
	<polygon class="st9" points="422.81,303.61 411.17,296.9 410.08,297.53 421.71,304.25 	"/>
	<polygon class="st9" points="439.31,314.41 452.78,322.19 453.88,321.55 440.41,313.77 	"/>
	<polygon class="st8" points="440.08,293.64 428.44,286.92 427.88,287.24 439.52,293.96 	"/>
	<polygon class="st8" points="456.02,302.84 441.74,294.6 441.18,294.92 455.46,303.17 	"/>
	<polygon class="st8" points="457.12,304.12 470.54,311.87 471.1,311.55 457.68,303.8 	"/>
	<polygon class="st9" points="455.46,303.17 441.18,294.92 440.08,295.56 454.36,303.8 	"/>
	<polygon class="st9" points="439.52,293.96 427.88,287.24 426.78,287.88 438.42,294.6 	"/>
	<polygon class="st9" points="456.02,304.76 469.45,312.51 470.54,311.87 457.12,304.12 	"/>
	<polygon class="st8" points="453.58,286.5 453.01,286.17 440.08,293.64 439.52,293.96 438.42,294.6 423.37,303.29 422.81,303.61 
		421.71,304.25 406.66,312.94 406.1,313.26 405,313.9 389.95,322.59 389.38,322.91 388.28,323.54 373.23,332.23 372.67,332.56 
		371.57,333.19 356.52,341.88 355.96,342.21 354.86,342.84 339.67,351.61 340.23,351.94 	"/>
	<polygon class="st9" points="357.62,343.17 358.18,342.84 373.23,334.15 374.33,333.52 374.89,333.19 389.95,324.5 391.04,323.87 
		391.61,323.54 406.66,314.85 407.76,314.22 408.32,313.9 423.37,305.2 424.47,304.57 425.03,304.25 440.08,295.56 441.18,294.92 
		441.74,294.6 454.68,287.13 453.58,286.5 340.23,351.94 341.33,352.57 356.52,343.8 	"/>
	<polygon class="st8" points="356.74,361.43 356.74,361.43 356.64,361.37 	"/>
	<polygon class="st8" points="455.46,303.17 454.36,303.8 439.31,312.49 438.75,312.81 437.65,313.45 422.6,322.14 422.03,322.46 
		420.94,323.1 405.88,331.79 405.32,332.11 404.22,332.75 389.17,341.44 388.61,341.76 387.51,342.4 372.46,351.09 371.9,351.41 
		370.8,352.04 355.64,360.79 356.2,361.12 469.54,295.68 468.98,295.36 456.02,302.84 	"/>
	<polygon class="st9" points="356.2,361.12 356.2,361.12 356.64,361.37 356.74,361.43 357.3,361.75 372.46,353 373.56,352.37 
		374.12,352.04 389.17,343.35 390.27,342.72 390.83,342.39 405.88,333.7 406.98,333.07 407.54,332.75 422.6,324.06 423.69,323.42 
		424.26,323.1 439.31,314.41 440.41,313.77 440.97,313.45 456.02,304.76 457.12,304.12 457.68,303.8 470.64,296.32 469.54,295.68 	
		"/>
</g>
<path class="st10" d="M243.28,440.3l254.89-147.16c3.38,38.23-20.21,77.1-70.78,106.3C376.82,428.63,309.49,442.25,243.28,440.3z"/>
<path class="st11" d="M498.35,295.74L248.61,440.41c-1.78-0.03-3.55-0.07-5.32-0.12l254.89-147.16
	C498.25,294.01,498.31,294.87,498.35,295.74z"/>
<g>
	
		<radialGradient id="SVGID_3_" cx="114.8563" cy="227.9288" r="37.7612" gradientTransform="matrix(1 0 0 0.4582 0 123.5016)" gradientUnits="userSpaceOnUse">
		<stop  offset="0" style="stop-color:#333333"/>
		<stop  offset="1" style="stop-color:#333333;stop-opacity:0"/>
	</radialGradient>
	<ellipse class="st12" cx="111.56" cy="227.93" rx="38.12" ry="17.49"/>
	<g id="XMLID_681_">
		<g id="XMLID_682_">
			<g>
				<g id="XMLID_698_">
					<polygon id="XMLID_700_" class="st13" points="96.89,151.26 96.89,236.84 81.4,230.78 					"/>
					<polygon id="XMLID_699_" class="st14" points="96.89,151.26 96.89,236.84 114.63,230 					"/>
				</g>
				<polygon id="XMLID_697_" class="st15" points="84.85,213.07 96.98,221.72 111.56,215.11 108.57,203.12 				"/>
			</g>
			<g id="XMLID_693_">
				<polygon id="XMLID_696_" class="st16" points="96.89,110.86 96.89,217.62 56.01,202.16 				"/>
				<polygon id="XMLID_695_" class="st17" points="96.89,110.86 96.89,217.62 56.01,202.16 				"/>
				<polygon id="XMLID_694_" class="st18" points="96.89,110.86 96.89,217.62 137.77,202.16 				"/>
			</g>
			<polygon id="XMLID_692_" class="st15" points="74.74,160.33 96.89,168.71 119.04,160.33 121.53,165.89 96.89,176.23 
				74.74,160.33 			"/>
			<g id="XMLID_688_">
				<polygon id="XMLID_691_" class="st16" points="96.89,83.13 96.89,168.71 64.12,156.31 				"/>
				<polygon id="XMLID_690_" class="st17" points="96.89,83.13 96.89,168.71 64.12,156.31 				"/>
				<polygon id="XMLID_689_" class="st18" points="96.89,83.13 96.89,168.71 129.66,156.31 				"/>
			</g>
			<polygon id="XMLID_687_" class="st15" points="81.37,117.79 96.89,128.57 114.82,123.18 107.83,107.57 			"/>
			<g id="XMLID_683_">
				<polygon id="XMLID_686_" class="st16" points="96.89,72.95 96.89,123.66 77.47,116.32 				"/>
				<polygon id="XMLID_685_" class="st17" points="96.89,72.95 96.89,123.66 77.47,116.32 				"/>
				<polygon id="XMLID_684_" class="st18" points="96.89,72.95 96.89,123.66 116.31,116.32 				"/>
			</g>
		</g>
	</g>
</g>
<g>
	
		<radialGradient id="SVGID_4_" cx="80.8206" cy="272.1867" r="31.3858" gradientTransform="matrix(1 0 0 0.4582 0 147.4825)" gradientUnits="userSpaceOnUse">
		<stop  offset="0" style="stop-color:#333333"/>
		<stop  offset="1" style="stop-color:#333333;stop-opacity:0"/>
	</radialGradient>
	<ellipse class="st19" cx="78.08" cy="272.19" rx="31.68" ry="14.54"/>
	<g id="XMLID_661_">
		<g id="XMLID_662_">
			<g>
				<g id="XMLID_678_">
					<polygon id="XMLID_680_" class="st13" points="65.89,208.46 65.89,279.6 53.01,274.56 					"/>
					<polygon id="XMLID_679_" class="st14" points="65.89,208.46 65.89,279.6 80.63,273.91 					"/>
				</g>
				<polygon id="XMLID_677_" class="st15" points="55.88,259.83 65.96,267.03 78.08,261.54 75.6,251.56 				"/>
			</g>
			<g id="XMLID_673_">
				<polygon id="XMLID_676_" class="st16" points="65.89,174.88 65.89,263.62 31.91,250.77 				"/>
				<polygon id="XMLID_675_" class="st17" points="65.89,174.88 65.89,263.62 31.91,250.77 				"/>
				<polygon id="XMLID_674_" class="st18" points="65.89,174.88 65.89,263.62 99.86,250.77 				"/>
			</g>
			<polygon id="XMLID_672_" class="st15" points="47.48,216 65.89,222.97 84.3,216 86.37,220.62 65.89,229.22 47.48,216 			"/>
			<g id="XMLID_668_">
				<polygon id="XMLID_671_" class="st16" points="65.89,151.83 65.89,222.97 38.65,212.66 				"/>
				<polygon id="XMLID_670_" class="st17" points="65.89,151.83 65.89,222.97 38.65,212.66 				"/>
				<polygon id="XMLID_669_" class="st18" points="65.89,151.83 65.89,222.97 93.12,212.66 				"/>
			</g>
			<polygon id="XMLID_667_" class="st15" points="52.99,180.65 65.89,189.6 80.79,185.13 74.98,172.15 			"/>
			<g id="XMLID_663_">
				<polygon id="XMLID_666_" class="st16" points="65.89,143.38 65.89,185.53 49.75,179.42 				"/>
				<polygon id="XMLID_665_" class="st17" points="65.89,143.38 65.89,185.53 49.75,179.42 				"/>
				<polygon id="XMLID_664_" class="st18" points="65.89,143.38 65.89,185.53 82.02,179.42 				"/>
			</g>
		</g>
	</g>
</g>
<g>
	<polygon class="st20" points="281.11,186.74 170.42,250.65 170.42,139.37 225.76,52.9 281.11,75.46 	"/>
	<polygon class="st21" points="443.67,278.07 332.98,341.98 332.98,234.39 388.32,147.92 443.67,170.57 	"/>
	<g>
		<polygon class="st22" points="432.5,201.97 432.5,285.39 435.09,286.86 435.09,200.44 		"/>
		<polygon class="st23" points="342.99,253.64 342.99,336.91 432.48,285.32 432.68,201.86 		"/>
		<g>
			<polygon class="st0" points="432.63,222.36 342.99,274.11 342.99,280.28 432.62,228.53 			"/>
			<polygon class="st0" points="432.56,252.14 342.99,303.85 342.99,310.02 432.54,258.32 			"/>
			<polygon class="st0" points="432.65,214.91 342.99,266.67 342.99,272.84 432.63,221.09 			"/>
			<polygon class="st0" points="432.61,229.8 342.99,281.55 342.99,287.72 432.6,235.98 			"/>
			<polygon class="st0" points="432.5,274.48 342.99,326.16 342.99,332.33 432.49,280.66 			"/>
			<polygon class="st0" points="432.54,259.59 342.99,311.29 342.99,317.46 432.53,265.77 			"/>
			<polygon class="st0" points="432.52,267.03 342.99,318.73 342.99,324.9 432.51,273.21 			"/>
			<polygon class="st0" points="432.58,244.69 342.99,296.42 342.99,302.59 432.56,250.87 			"/>
			<polygon class="st0" points="432.59,237.25 342.99,288.98 342.99,295.15 432.58,243.43 			"/>
			<polygon class="st0" points="432.67,207.46 342.99,259.24 342.99,265.41 432.65,213.64 			"/>
			<polygon class="st0" points="342.99,333.6 342.99,336.91 432.48,285.32 432.49,281.93 			"/>
			<polygon class="st0" points="432.68,201.86 342.99,253.64 342.99,257.97 432.67,206.2 			"/>
			<polygon class="st8" points="432.67,207.04 342.99,258.82 342.99,259.24 432.67,207.46 			"/>
			<polygon class="st9" points="432.67,206.2 342.99,257.97 342.99,258.82 432.67,207.04 			"/>
			<polygon class="st8" points="432.65,214.49 342.99,266.25 342.99,266.67 432.65,214.91 			"/>
			<polygon class="st9" points="432.65,213.64 342.99,265.41 342.99,266.25 432.65,214.49 			"/>
			<polygon class="st8" points="432.63,221.93 342.99,273.69 342.99,274.11 432.63,222.36 			"/>
			<polygon class="st9" points="432.63,221.09 342.99,272.84 342.99,273.69 432.63,221.93 			"/>
			<polygon class="st8" points="432.61,229.38 342.99,281.12 342.99,281.55 432.61,229.8 			"/>
			<polygon class="st9" points="432.62,228.53 342.99,280.28 342.99,281.12 432.61,229.38 			"/>
			<polygon class="st8" points="432.6,236.83 342.99,288.56 342.99,288.98 432.59,237.25 			"/>
			<polygon class="st9" points="432.6,235.98 342.99,287.72 342.99,288.56 432.6,236.83 			"/>
			<polygon class="st8" points="432.58,244.27 342.99,296 342.99,296.42 432.58,244.69 			"/>
			<polygon class="st9" points="432.58,243.43 342.99,295.15 342.99,296 432.58,244.27 			"/>
			<polygon class="st8" points="432.56,251.72 342.99,303.43 342.99,303.85 432.56,252.14 			"/>
			<polygon class="st9" points="432.56,250.87 342.99,302.59 342.99,303.43 432.56,251.72 			"/>
			<polygon class="st8" points="432.54,259.17 342.99,310.87 342.99,311.29 432.54,259.59 			"/>
			<polygon class="st9" points="432.54,258.32 342.99,310.02 342.99,310.87 432.54,259.17 			"/>
			<polygon class="st8" points="432.52,266.61 342.99,318.3 342.99,318.73 432.52,267.03 			"/>
			<polygon class="st9" points="432.53,265.77 342.99,317.46 342.99,318.3 432.52,266.61 			"/>
			<polygon class="st8" points="432.51,274.06 342.99,325.74 342.99,326.16 432.5,274.48 			"/>
			<polygon class="st9" points="432.51,273.21 342.99,324.9 342.99,325.74 432.51,274.06 			"/>
			<polygon class="st8" points="432.49,281.5 342.99,333.18 342.99,333.6 432.49,281.93 			"/>
			<polygon class="st9" points="432.49,280.66 342.99,332.33 342.99,333.18 432.49,281.5 			"/>
		</g>
	</g>
	<g>
		<g class="st24">
			<polygon class="st8" points="333.02,238.6 443.71,174.69 443.71,173.36 333.02,237.27 			"/>
		</g>
		<g>
			<polygon class="st23" points="332.98,238.24 443.67,174.34 443.67,173 332.98,236.91 			"/>
		</g>
	</g>
	<polygon class="st25" points="170.42,139.37 332.98,234.39 332.98,345.67 170.42,250.65 	"/>
	<polygon class="st22" points="170.42,139.37 332.98,234.39 332.98,345.67 170.42,250.65 	"/>
	<polygon class="st26" points="166.05,141.45 336.2,240.94 336.13,245.02 166.05,145.92 	"/>
	<polygon class="st27" points="449.14,173.77 394.14,151.21 394.07,151.32 393.79,151.21 336.2,241.24 336.13,245.02 395.13,154.63 
		449.14,176.77 	"/>
	<polygon class="st28" points="332.98,246.14 336.13,247.98 336.2,243.89 332.98,242.01 	"/>
	<polygon class="st28" points="170.42,151.42 332.98,246.14 332.98,242.01 170.42,146.95 	"/>
	<polygon class="st29" points="443.67,174.48 394.14,154.17 394.07,154.28 393.79,154.17 336.2,244.2 336.13,247.98 395.13,157.58 
		443.67,177.48 	"/>
	<polygon class="st30" points="223.63,51.76 393.79,151.21 336.25,241.11 166.09,141.66 	"/>
	
		<pattern  id="SVGID_5_" xlink:href="#New_Pattern_Swatch_3" patternTransform="matrix(0.4862 0.2905 -0.2905 0.4862 -5696.0278 -1374.6678)">
	</pattern>
	<polygon class="st31" points="223.63,51.76 393.79,151.21 336.25,241.11 166.09,141.66 	"/>
	<polygon class="st32" points="223.63,51.76 393.79,151.21 449.14,173.77 278.98,74.32 	"/>
	<polygon class="st22" points="333.01,347.6 167.94,252.27 167.94,245.57 333.01,340.9 	"/>
	<polygon class="st8" points="333.01,340.9 281.09,311.44 283.57,310.01 335.49,339.47 	"/>
	<g>
		<polygon class="st8" points="332.99,340.9 345.47,333.64 342.99,332.21 330.52,339.47 		"/>
	</g>
	<g>
		<polygon class="st8" points="436.57,280.99 446.26,275.31 443.67,273.84 433.98,279.52 		"/>
	</g>
	<polygon class="st33" points="345.47,340.33 333.01,347.6 333.01,340.9 345.47,333.64 	"/>
	<polygon class="st33" points="446.26,282.01 436.57,287.69 436.57,280.99 446.26,275.31 	"/>
	<polygon class="st34" points="223.01,99.17 206.05,89.38 206.05,49.97 223.01,59.76 	"/>
	<polygon class="st35" points="223.02,99.17 239.98,73.64 239.98,49.97 223.02,59.76 	"/>
	<polygon class="st22" points="223,62.8 241.15,52.4 241.1,48.14 223,58.61 	"/>
	<polygon class="st36" points="223,62.8 241.15,52.4 241.1,48.14 223,58.61 	"/>
	<polygon class="st8" points="223,58.59 204.89,48.14 222.99,37.69 241.1,48.14 	"/>
	<g>
		<polygon class="st22" points="223,55.47 223,40.48 236.31,48.12 		"/>
		<polygon class="st33" points="223,40.48 223,55.47 209.68,48.12 		"/>
	</g>
	<polygon class="st22" points="206.05,89.38 223.01,99.17 223.01,99.14 206.05,89.34 	"/>
	<polygon class="st22" points="223.01,61.48 223.01,59.76 217.99,56.86 217.99,58.59 	"/>
	<polygon class="st22" points="217.58,58.35 217.58,56.63 208.03,51.12 208.03,52.84 	"/>
	<path class="st22" d="M222.77,98.53v-4.84l0.23,0.13v-0.47l-5.02-2.9v-4.84l5.02,2.9v-0.47l-0.23-0.13v-4.84l0.23,0.13v-0.47
		l-5.02-2.9v-4.84l5.02,2.9v-0.47l-0.23-0.13v-4.84l0.23,0.13v-0.47l-5.02-2.9v-4.84l5.02,2.9v-0.47l-0.23-0.13v-4.84l0.23,0.13
		v-0.47l-5.02-2.9v-1.72l-0.41-0.24v1.72l-9.55-5.51v-1.72l-0.41-0.24v1.72l-1.58-0.91v0.47l6.37,3.68v4.84L206.05,57v0.47
		l1.58,0.91v4.84l-1.58-0.91v0.47l6.37,3.68v4.84l-6.37-3.68v0.47l1.58,0.91v4.84l-1.58-0.91v0.47l6.37,3.68v4.84l-6.37-3.68v0.47
		l1.58,0.91v4.84l-1.58-0.91v0.47l6.37,3.68v4.84l-6.37-3.68v0.47l16.96,9.79v-0.47L222.77,98.53z M222.37,82.83v4.84l-9.55-5.51
		v-4.84L222.37,82.83z M222.37,72.21v4.84l-9.55-5.51V66.7L222.37,72.21z M212.82,56.07l9.55,5.51v4.84l-9.55-5.51V56.07z
		 M208.03,63.46v-4.84l9.55,5.51v4.84L208.03,63.46z M208.03,74.09v-4.84l9.55,5.51v4.84L208.03,74.09z M208.03,84.71v-4.84
		l9.55,5.51v4.84L208.03,84.71z M222.37,98.3l-9.55-5.51v-4.84l9.55,5.51V98.3z"/>
	<polygon class="st37" points="223.01,62.8 204.85,52.4 204.9,48.14 223.01,58.61 	"/>
	<g>
		<defs>
			<polygon id="SVGID_6_" points="223.02,99.17 239.98,73.64 239.98,49.97 223.02,59.76 			"/>
		</defs>
		<clipPath id="SVGID_7_">
			<use xlink:href="#SVGID_6_"  style="overflow:visible;"/>
		</clipPath>
		<path class="st38" d="M223.02,98.66v0.47l16.96-9.79v-0.47l-6.37,3.68v-4.84l6.37-3.68v-0.47l-1.58,0.91v-4.84l1.58-0.91v-0.47
			l-6.37,3.68v-4.84l6.37-3.68v-0.47l-1.58,0.91v-4.84l1.58-0.91v-0.47l-6.37,3.68v-4.84l6.37-3.68v-0.47l-1.58,0.91v-4.84
			l1.58-0.91V57l-6.37,3.68v-4.84l6.37-3.68v-0.47l-1.58,0.91v-1.72l-0.41,0.24v1.72l-9.55,5.51v-1.72l-0.41,0.24v1.72l-5.02,2.9
			v0.47l0.23-0.13v4.84l-0.23,0.13v0.47l5.02-2.9v4.84l-5.02,2.9v0.47l0.23-0.13v4.84l-0.23,0.13v0.47l5.02-2.9v4.84l-5.02,2.9v0.47
			l0.23-0.13v4.84l-0.23,0.13v0.47l5.02-2.9v4.84l-5.02,2.9v0.47l0.23-0.13v4.84L223.02,98.66z M233.2,77.32v4.84l-9.55,5.51v-4.84
			L233.2,77.32z M233.2,66.7v4.84l-9.55,5.51v-4.84L233.2,66.7z M233.2,60.91l-9.55,5.51v-4.84l9.55-5.51V60.91z M228.45,68.97
			v-4.84l9.55-5.51v4.84L228.45,68.97z M228.45,79.6v-4.84l9.55-5.51v4.84L228.45,79.6z M228.45,90.22v-4.84l9.55-5.51v4.84
			L228.45,90.22z M223.66,93.45l9.55-5.51v4.84l-9.55,5.51V93.45z"/>
	</g>
	<g>
		<polygon class="st20" points="170.8,253.79 281.49,317.7 281.49,206.42 282.33,87.27 170.8,142.51 		"/>
		<polygon class="st22" points="87.41,301.73 198.11,365.63 198.11,255.34 142.76,168.87 87.41,191.52 		"/>
		<polygon class="st8" points="87.41,199.68 198.11,263.59 198.11,262.3 87.41,198.39 		"/>
		<polygon class="st21" points="87.41,199.11 198.11,263.02 198.11,261.73 87.41,197.82 		"/>
		<polygon class="st25" points="281.49,206.42 198.11,255.34 198.11,366.62 281.49,317.7 		"/>
		<polygon class="st21" points="281.49,206.42 198.11,255.34 198.11,366.62 281.49,317.7 		"/>
		<polygon class="st26" points="283.45,210.03 194.88,261.88 194.95,265.97 283.45,214.5 		"/>
		<polygon class="st27" points="81.95,194.72 136.94,172.16 137.02,172.27 137.29,172.16 194.88,262.19 194.95,265.97 
			135.95,175.57 81.95,197.71 		"/>
		<polygon class="st28" points="198.11,267.09 194.95,268.92 194.88,264.84 198.11,262.96 		"/>
		<polygon class="st28" points="283.45,217.28 198.11,267.09 198.11,262.96 279.94,215.24 		"/>
		<polygon class="st29" points="87.41,195.43 136.94,175.11 137.02,175.23 137.29,175.11 194.88,265.15 194.95,268.92 
			135.95,178.53 87.41,198.43 		"/>
		<polygon class="st30" points="284.46,86.13 137.29,172.16 194.84,262.06 285.82,208.71 		"/>
		
			<pattern  id="SVGID_8_" xlink:href="#New_Pattern_Swatch_3" patternTransform="matrix(-0.4862 0.2905 0.2905 0.4862 -9609.8867 -1430.2168)">
		</pattern>
		<polygon class="st39" points="284.46,86.13 137.29,172.16 194.84,262.06 285.82,208.71 		"/>
		<polygon class="st32" points="284.46,86.13 137.29,172.16 81.95,194.72 172.93,141.37 		"/>
		<polygon class="st21" points="198.07,368.55 283.97,319.31 283.97,312.62 198.07,361.85 		"/>
		<polygon class="st8" points="198.07,361.85 283.97,312.63 281.5,311.2 195.59,360.42 		"/>
		<g>
			<polygon class="st8" points="198.09,361.85 84.94,296.38 87.41,294.95 200.57,360.42 			"/>
		</g>
		<polygon class="st22" points="84.94,303.07 122.56,324.95 124.66,323.74 149.58,338.12 149.58,340.55 198.07,368.55 
			198.07,361.85 84.94,296.38 		"/>
	</g>
	<g>
		<g>
			<polygon class="st40" points="121.51,248.77 119.41,250.04 153.09,269.69 155.19,268.42 			"/>
		</g>
		<polygon class="st27" points="153.09,335.97 155.19,334.7 155.19,268.43 153.09,269.7 		"/>
		<polygon class="st27" points="122.56,325.42 124.66,324.21 124.66,256.18 122.56,257.39 		"/>
		<polygon class="st26" points="119.4,250.04 119.44,250.06 119.44,250.06 153.09,269.69 153.09,343.21 149.58,341.03 
			149.58,272.99 122.56,257.4 122.56,325.43 119.44,323.58 119.44,255.54 119.4,255.52 		"/>
		<polygon class="st26" points="124.66,258.61 124.66,324.21 149.58,338.59 149.58,272.99 		"/>
		<polygon class="st41" points="129.32,299.76 144.92,308.77 144.92,274.01 129.32,265.01 		"/>
		<polygon class="st27" points="129.32,299.76 130.32,299.18 130.32,265.59 129.32,264.94 		"/>
		<polygon class="st42" points="130.32,299.18 131.33,298.6 131.33,266.17 130.32,265.59 		"/>
		<polygon class="st40" points="130.32,299.18 129.32,299.76 144.92,308.77 144.92,307.61 		"/>
		<polygon class="st43" points="131.33,298.6 130.32,299.18 144.92,307.61 144.92,306.45 		"/>
		<g>
			<polygon class="st41" points="129.32,319.05 144.92,328.06 144.92,320.9 129.32,311.89 			"/>
			<polygon class="st27" points="129.32,319.05 130.32,318.47 130.32,312.48 129.32,311.83 			"/>
			<polygon class="st42" points="130.32,318.47 131.33,317.89 131.33,313.05 130.32,312.48 			"/>
			<polygon class="st40" points="130.32,318.47 129.32,319.05 144.92,328.06 144.92,326.9 			"/>
			<polygon class="st43" points="131.33,317.89 130.32,318.47 144.92,326.9 144.92,325.74 			"/>
		</g>
		
			<linearGradient id="SVGID_9_" gradientUnits="userSpaceOnUse" x1="-1890.7383" y1="300.046" x2="-1900.2806" y2="309.2993" gradientTransform="matrix(-1 0 0 1 -1767.2017 0)">
			<stop  offset="0" style="stop-color:#FFFFFF"/>
			<stop  offset="1" style="stop-color:#000000"/>
		</linearGradient>
		<circle class="st44" cx="127.37" cy="303.77" r="1.94"/>
	</g>
	<g>
		<polygon class="st41" points="110.91,277.84 94.78,268.52 94.78,238.76 110.91,248.07 		"/>
		<polygon class="st45" points="94.78,268.52 95.91,267.87 95.91,249.76 94.78,249.11 95.91,248.46 95.91,237.18 94.78,237.83 
			94.78,271.41 95.91,270.76 95.91,269.17 		"/>
		<polygon class="st46" points="94.78,271.12 93.64,271.77 93.64,238.19 94.78,237.54 		"/>
		<polygon class="st40" points="110.75,258.33 109.61,258.99 93.64,249.78 94.79,249.12 		"/>
		<polygon class="st47" points="111.88,257.67 110.74,258.33 95.92,249.77 94.78,249.11 95.92,248.45 		"/>
		<polygon class="st47" points="111.88,277.08 110.74,277.73 95.92,269.18 94.78,268.52 95.92,267.86 		"/>
		<polygon class="st40" points="110.75,277.73 109.6,278.39 93.64,269.18 94.78,268.52 		"/>
		<polygon class="st46" points="113.09,281.71 111.88,282.37 111.88,247.33 113.09,246.68 		"/>
		<path class="st27" d="M111.87,247.33l-20.5-11.83v35.04l2.26,1.31l15.95,9.21l2.28,1.32v-2.66V247.33z M109.59,278.39l-15.95-9.21
			v-16.79l15.95,9.21V278.39z M109.59,258.98l-15.95-9.21v-10.36l15.95,9.21V258.98z"/>
		<polygon class="st40" points="113.09,246.67 111.87,247.33 91.39,235.5 92.6,234.85 		"/>
	</g>
	<g>
		<polygon class="st41" points="181.64,316.79 165.51,307.48 165.51,277.71 181.64,287.02 		"/>
		<polygon class="st45" points="165.51,307.47 166.64,306.82 166.64,288.72 165.51,288.07 166.64,287.41 166.64,276.13 
			165.51,276.79 165.51,310.37 166.64,309.71 166.64,308.12 		"/>
		<polygon class="st46" points="165.5,310.07 164.37,310.72 164.37,277.14 165.5,276.49 		"/>
		<polygon class="st40" points="181.48,297.29 180.34,297.95 164.37,288.73 165.52,288.07 		"/>
		<polygon class="st47" points="182.61,296.62 181.47,297.28 166.65,288.72 165.51,288.07 166.65,287.41 		"/>
		<polygon class="st47" points="182.61,316.03 181.47,316.69 166.65,308.13 165.51,307.47 166.65,306.81 		"/>
		<polygon class="st40" points="181.48,316.69 180.33,317.35 164.37,308.13 165.51,307.47 		"/>
		<polygon class="st46" points="183.82,320.67 182.61,321.32 182.61,286.28 183.82,285.63 		"/>
		<path class="st27" d="M182.6,286.28l-20.5-11.83v35.04l2.26,1.31l15.95,9.21l2.28,1.32v-2.66V286.28z M180.32,317.34l-15.95-9.21
			v-16.79l15.95,9.21V317.34z M180.32,297.94l-15.95-9.21v-10.36l15.95,9.21V297.94z"/>
		<polygon class="st40" points="183.82,285.63 182.6,286.28 162.12,274.45 163.33,273.8 		"/>
	</g>
	<g>
		<polygon class="st41" points="317.87,294.77 301.73,285.45 301.73,255.69 317.87,265 		"/>
		<polygon class="st45" points="301.74,285.45 302.86,284.8 302.86,266.7 301.74,266.04 302.86,265.39 302.86,254.11 301.73,254.76 
			301.73,288.35 302.86,287.69 302.86,286.1 		"/>
		<polygon class="st46" points="301.73,288.05 300.6,288.7 300.6,255.12 301.73,254.47 		"/>
		<polygon class="st40" points="317.7,275.27 316.56,275.93 300.6,266.71 301.74,266.05 		"/>
		<polygon class="st47" points="318.84,274.6 317.7,275.26 302.88,266.7 301.74,266.04 302.88,265.39 		"/>
		<polygon class="st47" points="318.84,294.01 317.7,294.67 302.88,286.11 301.74,285.45 302.88,284.79 		"/>
		<polygon class="st40" points="317.7,294.67 316.56,295.33 300.6,286.11 301.74,285.45 		"/>
		<polygon class="st46" points="320.04,298.65 318.83,299.3 318.83,264.26 320.04,263.61 		"/>
		<path class="st27" d="M318.83,264.26l-20.5-11.83v35.04l2.26,1.31l15.95,9.21l2.28,1.32v-2.66V264.26z M316.55,295.32l-15.95-9.21
			v-16.79l15.95,9.21V295.32z M316.55,275.92l-15.95-9.21v-10.36l15.95,9.21V275.92z"/>
		<polygon class="st40" points="320.04,263.61 318.83,264.26 298.34,252.43 299.56,251.78 		"/>
	</g>
	<g>
		<polygon class="st41" points="252.74,294.08 268.88,284.77 268.88,255 252.74,264.32 		"/>
		<polygon class="st45" points="268.87,284.77 267.75,284.11 267.75,266.01 268.87,265.36 267.75,264.71 267.75,253.43 
			268.88,254.08 268.88,287.66 267.75,287.01 267.75,285.42 		"/>
		<polygon class="st46" points="268.88,287.36 270.01,288.02 270.01,254.44 268.88,253.78 		"/>
		<polygon class="st40" points="252.91,274.58 254.05,275.24 270.01,266.02 268.87,265.37 		"/>
		<polygon class="st47" points="251.77,273.92 252.91,274.57 267.74,266.02 268.87,265.36 267.73,264.7 		"/>
		<polygon class="st47" points="251.77,293.32 252.91,293.98 267.74,285.42 268.87,284.77 267.73,284.11 		"/>
		<polygon class="st40" points="252.91,293.98 254.05,294.64 270.01,285.43 268.87,284.77 		"/>
		<polygon class="st46" points="250.57,297.96 251.78,298.61 251.78,263.58 250.57,262.92 		"/>
		<path class="st27" d="M251.78,295.95v2.66l2.28-1.32l15.95-9.21l2.26-1.31v-35.04l-20.5,11.83V295.95z M254.06,277.84l15.95-9.21
			v16.79l-15.95,9.21V277.84z M254.06,264.87l15.95-9.21v10.36l-15.95,9.21V264.87z"/>
		<polygon class="st40" points="250.57,262.92 251.78,263.57 272.27,251.75 271.05,251.09 		"/>
	</g>
	<g>
		<polygon class="st41" points="213.37,316.93 229.5,307.62 229.5,277.85 213.37,287.17 		"/>
		<polygon class="st45" points="229.5,307.62 228.37,306.97 228.37,288.86 229.5,288.21 228.37,287.56 228.37,276.28 229.5,276.93 
			229.5,310.51 228.37,309.86 228.37,308.27 		"/>
		<polygon class="st46" points="229.5,310.22 230.64,310.87 230.64,277.29 229.5,276.64 		"/>
		<polygon class="st40" points="213.53,297.43 214.67,298.09 230.64,288.88 229.49,288.22 		"/>
		<polygon class="st47" points="212.4,296.77 213.54,297.43 228.36,288.87 229.5,288.21 228.36,287.55 		"/>
		<polygon class="st47" points="212.4,316.17 213.54,316.83 228.36,308.28 229.5,307.62 228.36,306.96 		"/>
		<polygon class="st40" points="213.53,316.83 214.68,317.49 230.64,308.28 229.5,307.62 		"/>
		<polygon class="st46" points="211.19,320.81 212.4,321.47 212.4,286.43 211.19,285.78 		"/>
		<path class="st27" d="M212.41,318.8v2.66l2.28-1.32l15.95-9.21l2.26-1.31v-35.04l-20.5,11.83V318.8z M214.69,300.69l15.95-9.21
			v16.79l-15.95,9.21V300.69z M214.69,287.72l15.95-9.21v10.36l-15.95,9.21V287.72z"/>
		<polygon class="st40" points="211.19,285.77 212.41,286.43 232.89,274.6 231.68,273.95 		"/>
	</g>
	<g>
		<polygon class="st22" points="433.98,279.52 433.98,286.21 436.57,287.69 436.57,280.99 		"/>
	</g>
	<g>
		<polygon class="st8" points="436.57,280.99 432.5,278.55 435.09,277.07 439.16,279.52 		"/>
	</g>
</g>
<g>
	<g>
		<g>
			<polygon class="st8" points="478.95,300.84 443.28,280.34 445.76,278.91 481.42,299.48 			"/>
		</g>
		<polygon class="st22" points="443.28,283.8 478.93,304.29 478.93,300.8 443.28,280.31 		"/>
		<polygon class="st33" points="478.93,304.29 481.42,302.87 481.42,299.48 478.93,300.83 		"/>
	</g>
</g>
<g>
	<g>
		<g>
			<polygon class="st8" points="368.41,364.7 332.74,344.2 335.22,342.77 370.89,363.34 			"/>
		</g>
		<polygon class="st22" points="332.74,347.66 368.39,368.15 368.39,364.66 332.74,344.17 		"/>
		<polygon class="st33" points="368.39,368.15 370.89,366.73 370.89,363.34 368.39,364.69 		"/>
	</g>
</g>
</svg>
